<svg id="plus" xmlns="http://www.w3.org/2000/svg" width="18.931" height="18.931" viewBox="0 0 18.931 18.931">
  <path id="Path_80" d="M13.841,4.375a1.052,1.052,0,0,1,1.052,1.052v8.414a1.052,1.052,0,0,1-1.052,1.052H5.427a1.052,1.052,0,0,1,0-2.1h7.362V5.427A1.052,1.052,0,0,1,13.841,4.375Z" transform="translate(-4.375 -4.375)" fill-rule="evenodd"/>
  <path id="Path_81" d="M9.375,10.427a1.052,1.052,0,0,1,1.052-1.052h8.414a1.052,1.052,0,0,1,0,2.1H11.478v7.362a1.052,1.052,0,0,1-2.1,0Z" transform="translate(-0.961 -0.961)" fill-rule="evenodd"/>
</svg>
