<svg xmlns="http://www.w3.org/2000/svg" width="19.301" height="35.965" viewBox="0 0 19.301 35.965" fill="currentcolor">
  <path id="arrow-right" d="M1.688,35.965a1.208,1.208,0,0,1-.861-.352,1.128,1.128,0,0,1-.37-.843,1.148,1.148,0,0,1,.352-.844L16.875,17.86,1.055,2.074a1.449,1.449,0,0,1-.3-.563A1.1,1.1,0,0,1,.756.9a1.467,1.467,0,0,1,.3-.544A1.169,1.169,0,0,1,1.916,0a1.169,1.169,0,0,1,.861.352L19.406,17.016a1.153,1.153,0,0,1,.264.4,1.261,1.261,0,0,1,.088.457,1.125,1.125,0,0,1-.088.439,1.213,1.213,0,0,1-.264.387L2.531,35.613a1.153,1.153,0,0,1-.4.264A1.217,1.217,0,0,1,1.688,35.965Z" transform="translate(-0.457)"/>
</svg>
