<svg xmlns="http://www.w3.org/2000/svg" width="19.301" height="35.965" viewBox="0 0 19.301 35.965" fill="currentcolor">
  <path id="arrow-right" d="M18.527,35.965a1.208,1.208,0,0,0,.861-.352,1.128,1.128,0,0,0,.37-.843,1.148,1.148,0,0,0-.352-.844L3.34,17.86,19.16,2.074a1.449,1.449,0,0,0,.3-.563,1.1,1.1,0,0,0,0-.615,1.467,1.467,0,0,0-.3-.544,1.229,1.229,0,0,0-1.722,0L.809,17.016a1.153,1.153,0,0,0-.264.4,1.261,1.261,0,0,0-.088.457,1.125,1.125,0,0,0,.088.439,1.213,1.213,0,0,0,.264.387l16.875,16.91a1.153,1.153,0,0,0,.4.264A1.217,1.217,0,0,0,18.527,35.965Z" transform="translate(-0.457)"/>
</svg>
