<svg xmlns="http://www.w3.org/2000/svg" width="17.714" height="31.5" viewBox="0 0 17.714 31.5">
  <path id="android-attach" d="M25.048,9V25.5a6.251,6.251,0,0,1-6.441,6,6.251,6.251,0,0,1-6.441-6V8.25A3.857,3.857,0,0,1,16.191,4.5a3.857,3.857,0,0,1,4.026,3.75V25.5A1.614,1.614,0,0,1,17,25.5V11.25H14.581V25.5a3.857,3.857,0,0,0,4.026,3.75,3.857,3.857,0,0,0,4.026-3.75V8.25a6.251,6.251,0,0,0-6.441-6,6.251,6.251,0,0,0-6.441,6V25.5c0,4.575,3.945,8.25,8.857,8.25s8.857-3.675,8.857-8.25V9Z" transform="translate(-9.75 -2.25)"/>
</svg>
