<svg xmlns="http://www.w3.org/2000/svg" width="17.5" height="20.003" viewBox="0 0 17.5 20.003"><g transform="translate(-1.25 0.003)"><path d="M10,20a2.5,2.5,0,0,0,2.5-2.5h-5A2.5,2.5,0,0,0,10,20Z" fill="currentcolor"/><path d="M10,2.4,9,2.6A5,5,0,0,0,5,7.5a27.171,27.171,0,0,1-.574,4.678A16.112,16.112,0,0,1,3.6,15H16.4a16.311,16.311,0,0,1-.829-2.822A27.246,27.246,0,0,1,15,7.5a5,5,0,0,0-4-4.9l-1-.2ZM17.775,15a3.181,3.181,0,0,0,.975,1.25H1.25A3.181,3.181,0,0,0,2.225,15,22.136,22.136,0,0,0,3.75,7.5,6.252,6.252,0,0,1,8.756,1.374a1.25,1.25,0,1,1,2.487,0A6.252,6.252,0,0,1,16.25,7.5,22.136,22.136,0,0,0,17.775,15Z" fill="currentcolor" fill-rule="evenodd"/></g></svg>