<svg xmlns="http://www.w3.org/2000/svg" width="20" height="19.905" viewBox="0 0 20 19.905"><g transform="translate(0 -0.096)"><path d="M10.232,1.391a.625.625,0,0,0-.465,0L2.308,4.375l3.005,1.2L13.005,2.5,10.233,1.391Zm4.455,1.782L6.995,6.25,10,7.451l7.692-3.076-3.005-1.2ZM18.75,5.3l-8.125,3.25v9.9L18.75,15.2V5.3ZM9.375,18.453V8.547L1.25,5.3v9.9ZM9.3.23A1.875,1.875,0,0,1,10.7.23L19.608,3.8a.625.625,0,0,1,.392.58V15.2a1.25,1.25,0,0,1-.786,1.16l-8.981,3.593a.625.625,0,0,1-.465,0L.787,16.363A1.25,1.25,0,0,1,0,15.2V4.375A.625.625,0,0,1,.393,3.8Z" fill="currentcolor" fill-rule="evenodd"/></g></svg>