<svg xmlns="http://www.w3.org/2000/svg" width="20" height="16.25" viewBox="0 0 20 16.25"><g transform="translate(0 -1.25)"><path d="M0,15.625A1.875,1.875,0,0,0,1.875,17.5h16.25A1.875,1.875,0,0,0,20,15.625v-7.5H18.75v7.5a.625.625,0,0,1-.625.625H1.875a.625.625,0,0,1-.625-.625v-7.5H0Z" fill="#7b7b7b" fill-rule="evenodd"/><path d="M0,5.625A1.875,1.875,0,0,1,1.875,3.75h16.25A1.875,1.875,0,0,1,20,5.625V8.6l-9.518,2.537a1.875,1.875,0,0,1-.965,0L0,8.6ZM1.875,5a.625.625,0,0,0-.625.625v2.02l8.589,2.29a.625.625,0,0,0,.323,0l8.588-2.29V5.625A.625.625,0,0,0,18.125,5ZM6.25,3.125A1.875,1.875,0,0,1,8.125,1.25h3.75A1.875,1.875,0,0,1,13.75,3.125V3.75H12.5V3.125a.625.625,0,0,0-.625-.625H8.125a.625.625,0,0,0-.625.625V3.75H6.25Z" fill="#7b7b7b" fill-rule="evenodd"/></g></svg>