<svg id="Warstwa_1" xmlns="http://www.w3.org/2000/svg" xmlns:xlink="http://www.w3.org/1999/xlink" x="0px" y="0px"
	 viewBox="0 0 50.8 50.8" width="50.8" height="50.8" xml:space="preserve" fill="currentcolor">
<g>
	<path id="Path_159" d="M32.7,22.7c0,1.5-1.2,2.8-2.7,2.8c-1.5,0-2.8-1.2-2.8-2.7c0-1.5,1.2-2.8,2.7-2.8c0,0,0,0,0.1,0
		C31.5,20,32.7,21.2,32.7,22.7z"/>
	<path id="Path_160" d="M41.9,22.7c0,1.5-1.2,2.8-2.7,2.8s-2.8-1.2-2.8-2.7c0-1.5,1.2-2.8,2.7-2.8c0,0,0,0,0.1,0
		C40.6,20,41.9,21.2,41.9,22.7L41.9,22.7z"/>
	<path id="Path_161" d="M32.7,31.8c0,1.5-1.2,2.8-2.7,2.8s-2.8-1.2-2.8-2.7s1.2-2.8,2.7-2.8c0,0,0,0,0.1,0
		C31.5,29.1,32.7,30.3,32.7,31.8z"/>
	<path id="Path_162" d="M41.9,31.8c0,1.5-1.2,2.8-2.7,2.8c-1.5,0-2.8-1.2-2.8-2.7c0-1.5,1.2-2.8,2.7-2.8c0,0,0,0,0.1,0
		C40.6,29.1,41.9,30.3,41.9,31.8L41.9,31.8z"/>
	<path id="Path_163" d="M14.4,31.8c0,1.5-1.2,2.8-2.7,2.8S9,33.5,8.9,32s1.2-2.8,2.7-2.8c0,0,0,0,0.1,0
		C13.2,29.1,14.4,30.3,14.4,31.8z"/>
	<path id="Path_164" d="M23.6,31.8c0,1.5-1.2,2.8-2.7,2.8c-1.5,0-2.8-1.2-2.8-2.7c0-1.5,1.2-2.8,2.7-2.8c0,0,0,0,0.1,0
		C22.3,29.1,23.6,30.3,23.6,31.8z"/>
	<path id="Path_165" d="M14.4,41c0,1.5-1.2,2.8-2.7,2.8c-1.5,0-2.8-1.2-2.8-2.7c0-1.5,1.2-2.8,2.7-2.8c0,0,0,0,0.1,0
		C13.2,38.3,14.4,39.5,14.4,41z"/>
	<path id="Path_166" d="M23.6,41c0,1.5-1.2,2.8-2.7,2.8c-1.5,0-2.8-1.2-2.8-2.7c0-1.5,1.2-2.8,2.7-2.8c0,0,0,0,0.1,0
		C22.3,38.3,23.6,39.5,23.6,41z"/>
	<path id="Path_167" d="M32.7,41c0,1.5-1.2,2.8-2.7,2.8c-1.5,0-2.8-1.2-2.8-2.7c0-1.5,1.2-2.8,2.7-2.8c0,0,0,0,0.1,0
		C31.5,38.3,32.7,39.5,32.7,41z"/>
	<path d="M43.7,3.7h-2v-2C41.7,0.7,41,0,40.1,0s-1.6,0.7-1.6,1.6v2h-26v-2c0-0.9-0.7-1.6-1.6-1.6S9.2,0.7,9.2,1.6v2h-2
		C3.2,3.7,0,6.9,0,10.8v32.9c0,3.9,3.2,7.1,7.1,7.1h36.6c3.9,0,7.1-3.2,7.1-7.1V10.8C50.8,6.9,47.6,3.7,43.7,3.7z M43.7,47.6H7.1
		c-2.1,0-3.9-1.7-3.9-3.9V16.3h44.3v27.5C47.6,45.9,45.9,47.6,43.7,47.6z"/>
</g>
</svg>
