<svg xmlns="http://www.w3.org/2000/svg" width="39" height="39" viewBox="0 0 39 39">
  <g id="Group_847" transform="translate(-1759 -259)">
    <g id="Ellipse_34" transform="translate(1759 259)" fill="none" stroke="#707070" stroke-width="1">
      <circle cx="19.5" cy="19.5" r="19.5" stroke="none"/>
      <circle cx="19.5" cy="19.5" r="19" fill="none"/>
    </g>
    <path id="arrow-right" d="M1.063,17.691a.594.594,0,0,1-.424-.173A.555.555,0,0,1,.457,17.1a.565.565,0,0,1,.173-.415l7.9-7.9L.751,1.02A.713.713,0,0,1,.6.743a.539.539,0,0,1,0-.3A.722.722,0,0,1,.751.173.575.575,0,0,1,1.175,0,.575.575,0,0,1,1.6.173l8.18,8.2a.567.567,0,0,1,.13.2.62.62,0,0,1,.043.225.553.553,0,0,1-.043.216.6.6,0,0,1-.13.19l-8.3,8.318a.567.567,0,0,1-.2.13A.6.6,0,0,1,1.063,17.691Z" transform="translate(1787.346 275.043) rotate(90)" stroke="#000" stroke-width="1"/>
  </g>
</svg>
