<svg id="copy" xmlns="http://www.w3.org/2000/svg" width="19.16" height="19.16" viewBox="0 0 19.16 19.16">
  <path id="Path_89" d="M22.686,10.369V22.686H10.369V10.369H22.686m0-1.369H10.369A1.369,1.369,0,0,0,9,10.369V22.686a1.369,1.369,0,0,0,1.369,1.369H22.686a1.369,1.369,0,0,0,1.369-1.369V10.369A1.369,1.369,0,0,0,22.686,9Z" transform="translate(-4.894 -4.894)" fill="currentcolor"/>
  <path id="Path_90" d="M3.619,13.2H2.25V3.619A1.369,1.369,0,0,1,3.619,2.25H13.2V3.619H3.619Z" transform="translate(-2.25 -2.25)" fill="currentcolor"/>
</svg>
