<svg id="columns-gap" xmlns="http://www.w3.org/2000/svg" width="20" height="20" viewBox="0 0 20 20">
  <path id="Path_30" d="M7.5,1.25H1.25V5H7.5ZM1.25,0A1.25,1.25,0,0,0,0,1.25V5A1.25,1.25,0,0,0,1.25,6.25H7.5A1.25,1.25,0,0,0,8.75,5V1.25A1.25,1.25,0,0,0,7.5,0Zm17.5,15H12.5v3.75h6.25ZM12.5,13.75A1.25,1.25,0,0,0,11.25,15v3.75A1.25,1.25,0,0,0,12.5,20h6.25A1.25,1.25,0,0,0,20,18.75V15a1.25,1.25,0,0,0-1.25-1.25ZM7.5,10H1.25v8.75H7.5ZM1.25,8.75A1.25,1.25,0,0,0,0,10v8.75A1.25,1.25,0,0,0,1.25,20H7.5a1.25,1.25,0,0,0,1.25-1.25V10A1.25,1.25,0,0,0,7.5,8.75Zm17.5-7.5H12.5V10h6.25ZM12.5,0a1.25,1.25,0,0,0-1.25,1.25V10a1.25,1.25,0,0,0,1.25,1.25h6.25A1.25,1.25,0,0,0,20,10V1.25A1.25,1.25,0,0,0,18.75,0Z" fill="#fff" fill-rule="evenodd"/>
</svg>
