<svg xmlns="http://www.w3.org/2000/svg" width="28" height="28" viewBox="0 0 28 28">
  <g id="Group_602" transform="translate(-1481 -16)">
    <g id="download" transform="translate(1486.182 22.35)">
      <path id="Path_139" d="M.551,18a.551.551,0,0,1,.551.551v3.858a1.1,1.1,0,0,0,1.1,1.1H15.432a1.1,1.1,0,0,0,1.1-1.1V18.551a.551.551,0,0,1,1.1,0v3.858a2.2,2.2,0,0,1-2.2,2.2H2.2a2.2,2.2,0,0,1-2.2-2.2V18.551A.551.551,0,0,1,.551,18Z" transform="translate(0 -10.284)" fill-rule="evenodd"/>
      <path id="Path_140" d="M11.082,16.707a.551.551,0,0,1,.779,0l2.527,2.527,2.527-2.527a.551.551,0,0,1,.779.779L14.779,20.4a.551.551,0,0,1-.78,0l-2.916-2.918A.551.551,0,0,1,11.082,16.707Z" transform="translate(-5.57 -9.542)" fill-rule="evenodd"/>
      <path id="Path_141" d="M17.426,2.25a.551.551,0,0,1,.551.551V11.62a.551.551,0,0,1-1.1,0V2.8A.551.551,0,0,1,17.426,2.25Z" transform="translate(-8.608 -2.25)" fill-rule="evenodd"/>
    </g>
  </g>
</svg>
