<svg xmlns="http://www.w3.org/2000/svg" width="19.441" height="21.408" viewBox="0 0 19.441 21.408">
  <g id="event" transform="translate(1.084 0.5)">
    <path id="Path_65" d="M2.5,4.135A1.439,1.439,0,0,1,3.936,2.692H6.808V1.25H8.244V2.692h5.744V1.25h1.436V2.692H18.3a1.439,1.439,0,0,1,1.436,1.442V18.558A1.439,1.439,0,0,1,18.3,20H15.424V18.558H18.3V4.135H15.424V5.577H13.988V4.135H8.244V5.577H6.808V4.135H3.936V8.462H2.5Z" transform="translate(-1.875 -1.25)" fill="currentcolor" stroke="currentcolor" stroke-width="0"/>
    <path id="Path_66" d="M13.125,9.375l-1.593,3.086-3.407.494,2.5,2.4L10,18.75l3.125-1.6,3.125,1.6-.625-3.392,2.5-2.4-3.5-.494Z" transform="translate(-8.125 1.25)" fill="currentcolor" stroke="currentcolor" stroke-width="1"/>
  </g>
</svg>
