<svg xmlns="http://www.w3.org/2000/svg" width="50" height="50" viewBox="0 0 50 50">
  <g id="Group_500" transform="translate(-1269 -599)">
    <circle id="Ellipse_20" cx="25" cy="25" r="25" transform="translate(1269 599)" fill="white"/>
    <g id="info" transform="translate(1277.373 609.125)">
      <path id="Path_136" d="M18.2,14.823l-3.364.422-.12.558.661.122c.432.1.517.259.423.689l-1.084,5.1c-.285,1.318.154,1.938,1.187,1.938a3.043,3.043,0,0,0,2.152-.878l.129-.611a1.627,1.627,0,0,1-1.008.361c-.4,0-.551-.283-.447-.783Z" transform="translate(0 -2.411)" fill="currentcolor"/>
      <path id="Path_137" d="M18.688,9.344a1.469,1.469,0,1,1-1.469-1.469A1.469,1.469,0,0,1,18.688,9.344Z" transform="translate(-0.39)" fill="currentcolor"/>
    </g>
  </g>
</svg>
