<svg xmlns="http://www.w3.org/2000/svg" width="17.5" height="20" viewBox="0 0 17.5 20"><g transform="translate(-1.25)"><path d="M3.75,2.5h10A2.5,2.5,0,0,1,16.25,5V17.5a2.5,2.5,0,0,1-2.5,2.5h-10a2.5,2.5,0,0,1-2.5-2.5V5a2.5,2.5,0,0,1,2.5-2.5Zm0,1.25A1.25,1.25,0,0,0,2.5,5V17.5a1.25,1.25,0,0,0,1.25,1.25h10A1.25,1.25,0,0,0,15,17.5V5a1.25,1.25,0,0,0-1.25-1.25Z" fill="#7b7b7b" fill-rule="evenodd"/><path d="M6.25,0h10a2.5,2.5,0,0,1,2.5,2.5V15a2.5,2.5,0,0,1-2.5,2.5V16.25A1.25,1.25,0,0,0,17.5,15V2.5a1.25,1.25,0,0,0-1.25-1.25h-10A1.25,1.25,0,0,0,5,2.5H3.75A2.5,2.5,0,0,1,6.25,0Z" fill="#7b7b7b"/></g></svg>