<svg xmlns="http://www.w3.org/2000/svg" width="20" height="15" viewBox="0 0 20 15"><g transform="translate(0 -2.5)"><path d="M18.75,17.5A1.224,1.224,0,0,0,20,16.25c0-1.25-1.25-5-6.25-5S7.5,15,7.5,16.25A1.224,1.224,0,0,0,8.75,17.5ZM8.756,16.32v0Zm.021-.07h9.945l.018,0,.01,0a3.85,3.85,0,0,0-.95-2.15A5,5,0,0,0,13.75,12.5,5.008,5.008,0,0,0,9.7,14.1a3.838,3.838,0,0,0-.95,2.15Zm9.966.07v0ZM13.75,8.75a2.5,2.5,0,1,0-2.5-2.5A2.5,2.5,0,0,0,13.75,8.75Zm3.75-2.5A3.75,3.75,0,1,1,13.75,2.5,3.75,3.75,0,0,1,17.5,6.25ZM8.67,11.6a7.35,7.35,0,0,0-1.538-.309q-.44-.042-.882-.041c-5,0-6.25,3.75-6.25,5A1.1,1.1,0,0,0,1.25,17.5H6.52a2.8,2.8,0,0,1-.27-1.25,5.735,5.735,0,0,1,1.363-3.63A6.654,6.654,0,0,1,8.67,11.6Zm-2.52.9A4.971,4.971,0,0,0,2.2,14.1a3.827,3.827,0,0,0-.95,2.155H5A6.881,6.881,0,0,1,6.15,12.5ZM1.875,6.875a3.75,3.75,0,1,1,3.75,3.75,3.75,3.75,0,0,1-3.75-3.75Zm3.75-2.5a2.5,2.5,0,1,0,2.5,2.5A2.5,2.5,0,0,0,5.625,4.375Z" fill="#7b7b7b" fill-rule="evenodd"/></g></svg>