<svg xmlns="http://www.w3.org/2000/svg" width="20.25" height="15" viewBox="0 0 20.25 15"><g transform="translate(0 15.5)"><path d="M13.75,17.5A1.224,1.224,0,0,0,15,16.25c0-1.25-1.25-5-7.5-5S0,15,0,16.25A1.224,1.224,0,0,0,1.25,17.5ZM1.256,16.32v0Zm.022-.07H13.723l.018,0,.01,0a3.343,3.343,0,0,0-1.04-2.08C11.9,13.35,10.361,12.5,7.5,12.5s-4.395.85-5.21,1.665a3.347,3.347,0,0,0-1.04,2.08l.027,0Zm12.468.07v0ZM7.5,8.75A2.5,2.5,0,1,0,5,6.25,2.5,2.5,0,0,0,7.5,8.75Zm3.75-2.5A3.75,3.75,0,1,1,7.5,2.5a3.75,3.75,0,0,1,3.75,3.75Z" transform="translate(0 -18)" fill="#7b7b7b" fill-rule="evenodd"/><path d="M16.1,20.375a.625.625,0,0,1,.625-.625h2.652a.625.625,0,0,1,0,1.25H16.723A.625.625,0,0,1,16.1,20.375Z" transform="translate(0.25 -26.25)" fill="#7b7b7b" fill-rule="evenodd"/><path d="M13.75,20.375a.625.625,0,0,1,.625-.625h5a.625.625,0,0,1,0,1.25h-5A.625.625,0,0,1,13.75,20.375Z" transform="translate(0.25 -34.25)" fill="#7b7b7b" fill-rule="evenodd"/><path d="M16.078,21.375a.625.625,0,0,1,.625-.625h2.672a.625.625,0,0,1,0,1.25H16.7A.625.625,0,0,1,16.078,21.375Z" transform="translate(0.25 -23.25)" fill="#7b7b7b" fill-rule="evenodd"/><path d="M-10.25,8.375a.625.625,0,0,1,.625-.625h5A.625.625,0,0,1-4,8.375.625.625,0,0,1-4.625,9h-5A.625.625,0,0,1-10.25,8.375Z" transform="translate(24.25 -18.25)" fill="#7b7b7b" fill-rule="evenodd"/></g></svg>