<svg xmlns="http://www.w3.org/2000/svg" width="25.88" height="20.456" viewBox="0 0 25.88 20.456" fill="currentcolor">
  <g id="upload" transform="translate(0 -3.044)">
    <path id="Path_116" d="M.809,13.8a.809.809,0,0,1,.809.809v5.661a1.617,1.617,0,0,0,1.617,1.617h19.41a1.617,1.617,0,0,0,1.617-1.617V14.6a.809.809,0,1,1,1.617,0v5.661A3.235,3.235,0,0,1,22.645,23.5H3.235A3.235,3.235,0,0,1,0,20.266V14.6A.809.809,0,0,1,.809,13.8ZM8.087,8.707a.809.809,0,0,0,1.144,0L12.94,5l3.709,3.709a.809.809,0,1,0,1.144-1.143l-4.28-4.28a.809.809,0,0,0-1.145,0L8.087,7.562a.809.809,0,0,0,0,1.145Z" fill-rule="evenodd"/>
    <path id="Path_117" d="M17.684,4.5a.809.809,0,0,1,.809.809v12.94a.809.809,0,1,1-1.617,0V5.309A.809.809,0,0,1,17.684,4.5Z" transform="translate(-4.744 -0.409)" fill-rule="evenodd"/>
  </g>
</svg>
