<svg id="Group_41" data-name="Group 41" xmlns="http://www.w3.org/2000/svg" width="18.796" height="12.246" viewBox="0 0 18.796 12.246">
  <g id="eye-show-line">
    <path id="Path_73" d="M19.6,10.028a10.563,10.563,0,0,0-9.247-5.845,10.527,10.527,0,0,0-9.235,5.845L.955,10.3l.151.281a10.563,10.563,0,0,0,9.247,5.845A10.5,10.5,0,0,0,19.6,10.584l.151-.281Zm-9.247,5.2A9.3,9.3,0,0,1,2.288,10.3a9.3,9.3,0,0,1,8.066-4.927,9.335,9.335,0,0,1,8.06,4.927A9.329,9.329,0,0,1,10.354,15.23Z" transform="translate(-0.955 -4.183)" fill="currentcolor"/>
    <path id="Path_74" d="M10.247,6.206a4.009,4.009,0,1,0,2.848,1.158A4.009,4.009,0,0,0,10.247,6.206Zm0,6.85a2.847,2.847,0,1,1,2.032-.83,2.841,2.841,0,0,1-2.032.83Z" transform="translate(-0.678 -4.078)" fill="currentcolor"/>
  </g>
</svg>
